<svg xmlns="http://www.w3.org/2000/svg" height="40" viewBox="0 -960 960 960" width="40" fill="#5f6368"><path d="M218.159-134.333q-34.826 0-59.326-24.5t-24.5-59.326q0-34.826 24.5-59t59.326-24.174q34.826 0 59 24.174t24.174 59q0 34.826-24.174 59.326t-59 24.5Zm262.139 0q-34.631 0-58.964-24.5Q397-183.333 397-218.159t24.036-59q24.035-24.174 58.666-24.174t58.964 24.174q24.334 24.174 24.334 59t-24.036 59.326q-24.035 24.5-58.666 24.5Zm261.543 0q-34.826 0-59-24.5t-24.174-59.326q0-34.826 24.174-59t59-24.174q34.826 0 59.326 24.174t24.5 59q0 34.826-24.5 59.326t-59.326 24.5ZM218.159-397q-34.826 0-59.326-24.036-24.5-24.035-24.5-58.666t24.5-58.964Q183.333-563 218.159-563t59 24.036q24.174 24.035 24.174 58.666t-24.174 58.964Q252.985-397 218.159-397Zm262.139 0q-34.631 0-58.964-24.036Q397-445.071 397-479.702t24.036-58.964Q445.071-563 479.702-563t58.964 24.036Q563-514.929 563-480.298t-24.036 58.964Q514.929-397 480.298-397Zm261.543 0q-34.826 0-59-24.036-24.174-24.035-24.174-58.666t24.174-58.964q24.174-24.334 59-24.334t59.326 24.036q24.5 24.035 24.5 58.666t-24.5 58.964Q776.667-397 741.841-397ZM218.159-658.667q-34.826 0-59.326-24.174t-24.5-59q0-34.826 24.5-59.326t59.326-24.5q34.826 0 59 24.5t24.174 59.326q0 34.826-24.174 59t-59 24.174Zm262.139 0q-34.631 0-58.964-24.174-24.334-24.174-24.334-59t24.036-59.326q24.035-24.5 58.666-24.5t58.964 24.5Q563-776.667 563-741.841t-24.036 59q-24.035 24.174-58.666 24.174Zm261.543 0q-34.826 0-59-24.174t-24.174-59q0-34.826 24.174-59.326t59-24.5q34.826 0 59.326 24.5t24.5 59.326q0 34.826-24.5 59t-59.326 24.174Z"/></svg>